
<global>
amp_veltrack=0
xfin_hicc1=24
xfout_hicc1=127
xfout_locc1=127
</global>

<group>
amp_veltrack=0
ampeg_attack=0.02
ampeg_release=3.5
group_label=Release_PP
lpc_hicc1=42
lpc_locc1=0
trigger=release

<region>
hikey=A5
hivel=42
lokey=G#5
lovel=0
offset=107092
pitch_keycenter=G#5
sample=Soprano_Doit_PP_G#4.opus
</region>

<region>
hikey=A4
hivel=42
lokey=G#4
lovel=0
offset=107541
pitch_keycenter=G#4
sample=Soprano_Doit_PP_G#3.opus
</region>

<region>
hikey=A3
hivel=42
lokey=G#3
lovel=0
offset=105509
pitch_keycenter=G#3
sample=Soprano_Doit_PP_G#2.opus
</region>

<region>
hikey=G5
hivel=42
lokey=F#5
lovel=0
offset=108100
pitch_keycenter=F#5
sample=Soprano_Doit_PP_F#4.opus
</region>

<region>
hikey=G4
hivel=42
lokey=F#4
lovel=0
offset=107605
pitch_keycenter=F#4
sample=Soprano_Doit_PP_F#3.opus
</region>

<region>
hikey=F5
hivel=42
lokey=E5
lovel=0
offset=101916
pitch_keycenter=E5
sample=Soprano_Doit_PP_E4.opus
</region>

<region>
hikey=F4
hivel=42
lokey=E4
lovel=0
offset=111908
pitch_keycenter=E4
sample=Soprano_Doit_PP_E3.opus
</region>

<region>
hikey=F6
hivel=42
lokey=D6
lovel=0
offset=112911
pitch_keycenter=D6
sample=Soprano_Doit_PP_D5.opus
</region>

<region>
hikey=D#5
hivel=42
lokey=D5
lovel=0
offset=112537
pitch_keycenter=D5
sample=Soprano_Doit_PP_D4.opus
</region>

<region>
hikey=D#4
hivel=42
lokey=D4
lovel=0
offset=107288
pitch_keycenter=D4
sample=Soprano_Doit_PP_D3.opus
</region>

<region>
hikey=C#6
hivel=42
lokey=C6
lovel=0
offset=115215
pitch_keycenter=C6
sample=Soprano_Doit_PP_C5.opus
</region>

<region>
hikey=C#5
hivel=42
lokey=C5
lovel=0
offset=98248
pitch_keycenter=C5
sample=Soprano_Doit_PP_C4.opus
</region>

<region>
hikey=C#4
hivel=42
lokey=C4
lovel=0
offset=114048
sample=Soprano_Doit_PP_C3.opus
</region>

<region>
hikey=B5
hivel=42
lokey=A#5
lovel=0
offset=103164
pitch_keycenter=A#5
sample=Soprano_Doit_PP_A#4.opus
</region>

<region>
hikey=B4
hivel=42
lokey=A#4
lovel=0
offset=100216
pitch_keycenter=A#4
sample=Soprano_Doit_PP_A#3.opus
</region>

<region>
hikey=B3
hivel=42
lokey=A#3
lovel=0
offset=111496
pitch_keycenter=A#3
sample=Soprano_Doit_PP_A#2.opus
</region>
</group>

<group>
amp_veltrack=0
ampeg_attack=0.02
ampeg_release=3.5
group_label=Release_MF
lpc_hicc1=84
lpc_locc1=43
trigger=release

<region>
hikey=A5
hivel=86
lokey=G#5
lovel=43
offset=108154
pitch_keycenter=G#5
sample=Soprano_Doit_MF_G#4.opus
</region>

<region>
hikey=A4
hivel=86
lokey=G#4
lovel=43
offset=100392
pitch_keycenter=G#4
sample=Soprano_Doit_MF_G#3.opus
</region>

<region>
hikey=A3
hivel=86
lokey=G#3
lovel=43
offset=68359
pitch_keycenter=G#3
sample=Soprano_Doit_MF_G#2.opus
</region>

<region>
hikey=G5
hivel=86
lokey=F#5
lovel=43
offset=103276
pitch_keycenter=F#5
sample=Soprano_Doit_MF_F#4.opus
</region>

<region>
hikey=G4
hivel=86
lokey=F#4
lovel=43
offset=97075
pitch_keycenter=F#4
sample=Soprano_Doit_MF_F#3.opus
</region>

<region>
hikey=F5
hivel=86
lokey=E5
lovel=43
offset=103493
pitch_keycenter=E5
sample=Soprano_Doit_MF_E4.opus
</region>

<region>
hikey=F4
hivel=86
lokey=E4
lovel=43
offset=104453
pitch_keycenter=E4
sample=Soprano_Doit_MF_E3.opus
</region>

<region>
hikey=F6
hivel=86
lokey=D6
lovel=43
offset=107785
pitch_keycenter=D6
sample=Soprano_Doit_MF_D5.opus
</region>

<region>
hikey=D#5
hivel=86
lokey=D5
lovel=43
offset=102215
pitch_keycenter=D5
sample=Soprano_Doit_MF_D4.opus
</region>

<region>
hikey=D#4
hivel=86
lokey=D4
lovel=43
offset=107281
pitch_keycenter=D4
sample=Soprano_Doit_MF_D3.opus
</region>

<region>
hikey=C#6
hivel=86
lokey=C6
lovel=43
offset=106644
pitch_keycenter=C6
sample=Soprano_Doit_MF_C5.opus
</region>

<region>
hikey=C#5
hivel=86
lokey=C5
lovel=43
offset=104846
pitch_keycenter=C5
sample=Soprano_Doit_MF_C4.opus
</region>

<region>
hikey=C#4
hivel=86
lokey=C4
lovel=43
offset=78923
sample=Soprano_Doit_MF_C3.opus
</region>

<region>
hikey=B5
hivel=86
lokey=A#5
lovel=43
offset=101126
pitch_keycenter=A#5
sample=Soprano_Doit_MF_A#4.opus
</region>

<region>
hikey=B4
hivel=86
lokey=A#4
lovel=43
offset=106864
pitch_keycenter=A#4
sample=Soprano_Doit_MF_A#3.opus
</region>

<region>
hikey=B3
hivel=86
lokey=A#3
lovel=43
offset=77859
pitch_keycenter=A#3
sample=Soprano_Doit_MF_A#2.opus
</region>
</group>

<group>
amp_veltrack=0
ampeg_attack=0.02
ampeg_release=3.5
group_label=Release_FF
lpc_hicc1=127
lpc_locc1=85
trigger=release

<region>
hikey=A5
hivel=127
lokey=G#5
lovel=87
offset=105379
pitch_keycenter=G#5
sample=Soprano_Doit_FF_G#4.opus
</region>

<region>
hikey=A4
hivel=127
lokey=G#4
lovel=87
offset=106725
pitch_keycenter=G#4
sample=Soprano_Doit_FF_G#3.opus
</region>

<region>
hikey=A3
hivel=127
lokey=G#3
lovel=87
offset=100946
pitch_keycenter=G#3
sample=Soprano_Doit_FF_G#2.opus
</region>

<region>
hikey=G5
hivel=127
lokey=F#5
lovel=87
offset=106060
pitch_keycenter=F#5
sample=Soprano_Doit_FF_F#4.opus
</region>

<region>
hikey=G4
hivel=127
lokey=F#4
lovel=87
offset=101494
pitch_keycenter=F#4
sample=Soprano_Doit_FF_F#3.opus
</region>

<region>
hikey=F5
hivel=127
lokey=E5
lovel=87
offset=105553
pitch_keycenter=E5
sample=Soprano_Doit_FF_E4.opus
</region>

<region>
hikey=F4
hivel=127
lokey=E4
lovel=87
offset=105451
pitch_keycenter=E4
sample=Soprano_Doit_FF_E3.opus
</region>

<region>
hikey=F6
hivel=127
lokey=D6
lovel=87
offset=109572
pitch_keycenter=D6
sample=Soprano_Doit_FF_D5.opus
</region>

<region>
hikey=D#5
hivel=127
lokey=D5
lovel=87
offset=99759
pitch_keycenter=D5
sample=Soprano_Doit_FF_D4.opus
</region>

<region>
hikey=D#4
hivel=127
lokey=D4
lovel=87
offset=103377
pitch_keycenter=D4
sample=Soprano_Doit_FF_D3.opus
</region>

<region>
hikey=C#6
hivel=127
lokey=C6
lovel=87
offset=107091
pitch_keycenter=C6
sample=Soprano_Doit_FF_C5.opus
</region>

<region>
hikey=C#5
hivel=127
lokey=C5
lovel=87
offset=101693
pitch_keycenter=C5
sample=Soprano_Doit_FF_C4.opus
</region>

<region>
hikey=C#4
hivel=127
lokey=C4
lovel=87
offset=107399
sample=Soprano_Doit_FF_C3.opus
</region>

<region>
hikey=B5
hivel=127
lokey=A#5
lovel=87
offset=104448
pitch_keycenter=A#5
sample=Soprano_Doit_FF_A#4.opus
</region>

<region>
hikey=B4
hivel=127
lokey=A#4
lovel=87
offset=105209
pitch_keycenter=A#4
sample=Soprano_Doit_FF_A#3.opus
</region>

<region>
hikey=B3
hivel=127
lokey=A#3
lovel=87
offset=108228
pitch_keycenter=A#3
sample=Soprano_Doit_FF_A#2.opus
</region>
</group>

<group>
amp_veltrack=0
ampeg_release=0.05
group_label=Sustain_0-63
lpc_hicc1=63
lpc_locc1=0

<region>
hivel=63
key=G5
loop_end=278296
loop_mode=loop_continuous
loop_start=80121
loop_xfade=24013
lovel=0
lpc=4gcoQ6aEssNd6aNDKSM1wyHtq0KLTubBDptvQmefxMLMjalCPI01who3UEHyQMdB62OowduIWkA1KZ5B+qKtwUAZjUESV6Q/MCKdwF6GkkBlr5xAmiaXwQdZNkL7fKXB
lpc_rms=-22.02
sample=Soprano_sustain_PP_G4.opus
tune=-13
</region>

<region>
hivel=63
key=G4
loop_end=274477
loop_mode=loop_continuous
loop_start=79022
loop_xfade=23683
lovel=0
lpc=dDvqQuyclMOkX3JDvNDDwl30vkJFdpbC4UIkQlUqMMLJjblA1dpKQXDcNMHBhjNC+OgPwhRnab24O3c/AMnxwPDeo0BuaTpBT2/gwNBl8ED/tULB/SxMQdENi8F1jRxB
lpc_rms=-26.84
offset=3998
sample=Soprano_sustain_PP_G3.opus
tune=-2
</region>

<region>
hivel=63
key=G#5
loop_end=276636
loop_mode=loop_continuous
loop_start=79643
loop_xfade=23870
lovel=0
lpc=IH2vQnP+H8N46uRCP/llwqVoY0LqnCLCQqjrQerfyMFi971BeK1fwYCEuMDiUKhB7/Icwe3ABkF2S4nAPOw+P2qQIUF8eHLBK60LQTffk8BHyZJBIZREwa0fXkErfCfB
lpc_rms=-28.85
offset=6846
sample=Soprano_sustain_PP_G#4.opus
tune=-12
</region>

<region>
hivel=63
key=G#4
loop_end=275255
loop_mode=loop_continuous
loop_start=79246
loop_xfade=23750
lovel=0
lpc=PqtsQgqJBcP+8MRCBDVDwhOMREKSKdjBXyJvQcb5ksF12vw/gTiMQLAMLT80zgFBH+RmwczkEUFeKhvAI7qpwKVheEBX7tm/doRPQC0iYz+Tin8/eHA4QEvjM8FVPMpA
lpc_rms=-33.20
offset=5510
sample=Soprano_sustain_PP_G#3.opus
tune=-7
</region>

<region>
hivel=63
key=G#3
loop_end=274712
loop_mode=loop_continuous
loop_start=79090
loop_xfade=23704
lovel=0
lpc=30rZQs3zLcP6q11CHEcNwhucFkLOaHtB1lsrwEbUpj+4pJ/B1YnGQc442sEShPZBi+o7wdMsZkDkZZnAS1YjQK8W2cBk/S5B+/aLwF1IGUDppZzBP90rQTmGDcFePzVB
lpc_rms=-26.30
offset=1661
sample=Soprano_sustain_PP_G#2.opus
tune=+5
</region>

<region>
hivel=63
key=F5
loop_end=278296
loop_mode=loop_continuous
loop_start=80121
loop_xfade=24013
lovel=0
lpc=8AbiQje3UMNZixND83KmwmmfQUJ7GwzBbcs6QmL4c8I0fgJCZqdIwT6TGcGwGoBBvCF8wG2E77/bTHNBHyvmwMoGOEEDMoTBHRwGQSlRFMH9I0NB8UwrwWf6oUGuc7rA
lpc_rms=-26.26
sample=Soprano_sustain_PP_F4.opus
tune=-8
</region>

<region>
hivel=63
key=F4
loop_end=275528
loop_mode=loop_continuous
loop_start=79325
loop_xfade=23774
lovel=0
lpc=9s21QlyDSsMXKwtDpgxSwl+eXEK8IzrCGH9KQqunbsJxfvVBYGtQwU71cEGcvZK/5sslwLA3B8Fh4T5BzatVwQ3CdkE09IDBKw+SQP6/ab8VzglB+4rwPl3ZDsHhMIxA
lpc_rms=-26.19
offset=9567
sample=Soprano_sustain_PP_F3.opus
</region>

<region>
hivel=63
key=F#5
loop_end=271983
loop_mode=loop_continuous
loop_start=78304
loop_xfade=23468
lovel=0
lpc=8inwQibrWcN6uhFDHDRbwvBFh0LNliXCmYhAQfY8fsFwsg9B3EeFQUiOQcHbXoNBDQ9ywJrEN8DrUAlB3ZjfwEcAs0CEBotArtMSQWzZ6z1eo9S+qnV2wFsQAsFavMVB
lpc_rms=-27.31
offset=2662
sample=Soprano_sustain_PP_F#4.opus
tune=-11
</region>

<region>
hivel=63
key=F#4
loop_end=273015
loop_mode=loop_continuous
loop_start=78601
loop_xfade=23557
lovel=0
lpc=SiAzQ6PQ1MO+2ZZD4dzTwqZ9A0NeYZnCV0orQlySw8Lt+61BcI4nQpUeW0Ck2ytA40a1wUg1UsAVL7/AGbNoQWIuUUFHKK3BxRlTQa1NU8EOHnFBC6m5wAlaXMB3tENA
lpc_rms=-22.47
offset=2627
sample=Soprano_sustain_PP_F#3.opus
tune=-2
</region>

<region>
hivel=63
key=E5
loop_end=278296
loop_mode=loop_continuous
loop_start=80121
loop_xfade=24013
lovel=0
lpc=xZzkQtrJV8PtOARD1GdewosMVkK+4Q/CxIR2Qu7JOcJOMB5A6g3uwJH8CMGfqLxB5JaCv1F2LkB70t2/2EutP/j088CG+1tAN/8jQYO8YsC0ZQvBtP/ovyj0QEHF8bg/
lpc_rms=-29.82
offset=10165
sample=Soprano_sustain_PP_E4.opus
tune=-1
</region>

<region>
hivel=63
key=E4
loop_end=274314
loop_mode=loop_continuous
loop_start=78975
loop_xfade=23669
lovel=0
lpc=khk7Q9n0zMPvPH9DGGTEwmlwBUO26obCvdYzQiufTcIgdd0+8KiZQJs1S8HrFwtCxDICwhCxqb8RublBeOJlwfNYoUBtpMLAfBauQY4mH8EmQ4bAdUzlwMPBIsAGqBNB
lpc_rms=-22.65
offset=4445
sample=Soprano_sustain_PP_E3.opus
tune=+5
</region>

<region>
hivel=63
key=D6
loop_end=274174
loop_mode=loop_continuous
loop_start=78935
loop_xfade=23657
lovel=0
lpc=c52ZQkClAsORLL5Ck9JqwvP5LkKQg+bBpzURQknzHMIsxv9BREVIwR9QTkBKnY5AB4e6PDxbwL8AlZxAuMouwPpOE0H547zAOPeMQKBChcF7CUvBv0b0Qchhc0AX+wTB
lpc_rms=-27.97
offset=11661
sample=Soprano_sustain_PP_D5.opus
tune=-28
</region>

<region>
hivel=63
key=D5
loop_end=276718
loop_mode=loop_continuous
loop_start=79667
loop_xfade=23877
lovel=0
lpc=HLSRQvukD8O8QcRCtzorwkcgckEzX7VAqyDQQWq5F8JX1BhB/nWzQLHtQ8FkupZBctKowApr4MAympM/fLNpwGUgCkCHViBBxreHQJ25HsEX9gRBk8k2wZRU2MDDIGFB
lpc_rms=-33.25
offset=9168
sample=Soprano_sustain_PP_D4.opus
tune=-1
</region>

<region>
hivel=63
key=D4
loop_end=275100
loop_mode=loop_continuous
loop_start=79201
loop_xfade=23737
lovel=0
lpc=XbKAQuckAsNk5dZCxiXAwmWLiUJETAjCW08zQh7UAcIxUqFBlCJZwYxtEMDghMtAi2f5v8TiHsBsb9BAlnlHwWd/JUGZVDHAWqyEQEhiqcBxeX9AK1wjweoGxkBgkbs/
lpc_rms=-27.70
offset=5118
sample=Soprano_sustain_PP_D3.opus
tune=+11
</region>

<region>
hikey=F6
hivel=63
lokey=D#6
loop_end=275440
loop_mode=loop_continuous
loop_start=79299
loop_xfade=23766
lovel=0
lpc=0asPQqiwd8KyvzBC/SzGwWEci0HioD/BsLIfQZ6HscDE8uY/PPN/QPFxvsBp5rlA9HuUPq32mcAxgAJBYWqnwC6RWkDIAaM/HCIRweqwaMHkSRNCBoWiwbFfpUBbypC+
lpc_rms=-31.86
offset=1100
pitch_keycenter=D#6
sample=Soprano_sustain_PP_D#5.opus
tune=-25
</region>

<region>
hivel=63
key=D#5
loop_end=276483
loop_mode=loop_continuous
loop_start=79599
loop_xfade=23857
lovel=0
lpc=2BHuQpHZZ8MZgShDPvXWwqV6r0LL8NvBnJc5QvqSaMIX8vY//+g9QaJ1F8E/6NpBecE2wUYApEAN+bTAK9o8wcCkb0Abw19Bke/uQFWv7b9rrpy/s2AtwBiFBsJkdhVC
lpc_rms=-27.77
offset=4241
sample=Soprano_sustain_PP_D#4.opus
tune=-2
</region>

<region>
hivel=63
key=D#4
loop_end=271444
loop_mode=loop_continuous
loop_start=78149
loop_xfade=23422
lovel=0
lpc=HLovQ2i5xcOgGo5Dqkkbw1x3F0NUM4HCgbqxQt/pAMPGiBRC4YBqwBAVf8EVOFtCervzwe+4pEGxw4fBl/ovwcJ+SkFyMYDAAedCQaUDu8HYQRNBLODWP7aVtUD3qEjA
lpc_rms=-23.19
offset=6729
sample=Soprano_sustain_PP_D#3.opus
tune=-3
</region>

<region>
hivel=63
key=C6
loop_end=276485
loop_mode=loop_continuous
loop_start=79600
loop_xfade=23857
lovel=0
lpc=ZBUEQ0Y2TMNFT8dCEYkVwtdtDkL7jM/Bm708QoCnNsL0R4BB9eWxv04/GED1JzJBg0hrvxua0cBG5aI+0CUhQSoq9cDwUlFBKl36QCWTjMFFCJk/zm9mwH2E/MH6CSJC
lpc_rms=-28.15
offset=4943
sample=Soprano_sustain_PP_C5.opus
tune=-13
</region>

<region>
hivel=63
key=C5
loop_end=274061
loop_mode=loop_continuous
loop_start=78902
loop_xfade=23647
lovel=0
lpc=AIsWQ98QksNhSCdDy2ORwu7uh0LNeifBMJQEQgkmFcLzRsC/5sYZwIhi879EVxlB+x8evyQ9VMGKywxBXpRKwX2rOkFBgZ5BPUqCQEvD4cBOtFXBw1N5wEAZpcFXSvBB
lpc_rms=-26.15
offset=3317
sample=Soprano_sustain_PP_C4.opus
tune=-7
</region>

<region>
hikey=C4
hivel=63
lokey=C4
loop_end=275388
loop_mode=loop_continuous
loop_start=79284
loop_xfade=23762
lovel=0
lpc=qWLDQjTJP8PR6ehCikaDwsov3EHLh/LAXoOdQoAxcsKGCPpBwyuJPjr3HMK8Tx5BIlYhwL8essEFO9xB/46IwKxgx0B/Mo1ADAoeQSZulsFfWRVB8YM7wYZznj5m1qxA
lpc_rms=-25.88
offset=8222
sample=Soprano_sustain_PP_C3.opus
tune=+12
</region>

<region>
hivel=63
key=C#6
loop_end=272568
loop_mode=loop_continuous
loop_start=78472
loop_xfade=23519
lovel=0
lpc=WPHiQtTJMsPb5stCXG4jwr66E0J4ZRDCDwBIQuqvRcKJEBJC+gVhwacVYEFnbpTAwGOFQMyV/r+4OAVBoetoPu8r60BzSQDBDh3oQE1BFUF45dbBRGOMwaJnE0IqYK0/
lpc_rms=-27.15
offset=3020
sample=Soprano_sustain_PP_C#5.opus
tune=-20
</region>

<region>
hivel=63
key=C#5
loop_end=275287
loop_mode=loop_continuous
loop_start=79255
loop_xfade=23753
lovel=0
lpc=rq7xQpmTR8MB7n9CUE8nwTZIS0JC7ObBLeM1Qlm7CcIUBDTAaGLoP/0TnsDRIx1BRS4UwWeH80D1ENQ/nVVtwbZug0GAk6U/+ffUQGM0t8AP9Fk8+dc+wTZh+MDU9p9B
lpc_rms=-31.05
offset=3905
sample=Soprano_sustain_PP_C#4.opus
tune=-12
</region>

<region>
hivel=63
key=C#4
loop_end=275310
loop_mode=loop_continuous
loop_start=79262
loop_xfade=23755
lovel=0
lpc=j93KQqtsP8P87fVC+jTEwm37n0JDWRfCbE+DQhGDVcI9OZxBk1UlwU1SFED3+eQ/u6aqP85dub+fqgbAxMhCvxbTpj8SKak/Q4dvvzCL1MCr8ApBXoYawYXm6UA4xAY+
lpc_rms=-26.88
offset=2655
sample=Soprano_sustain_PP_C#3.opus
tune=+16
</region>

<region>
hivel=63
key=B5
loop_end=277346
loop_mode=loop_continuous
loop_start=79848
loop_xfade=23931
lovel=0
lpc=vzeNQhl/4cLOaKNCFP7awW13IEFPJXjBnVuwQfxIjMHO1SRBeXQawCLhlj/SZsQ/SiJXwNLJr0DVjBXAWHDdPw6AAsC3P+g/+9o2QGiGQcDouh5A4RQQQSsIn8GXOOe/
lpc_rms=-34.80
offset=4399
sample=Soprano_sustain_PP_B4.opus
tune=-11
</region>

<region>
hivel=63
key=B4
loop_end=276552
loop_mode=loop_continuous
loop_start=79619
loop_xfade=23862
lovel=0
lpc=D5uHQt7uF8Oy39lCw1oywotjKkLdLZnBGMw4QV/Z5ME11VxBLozUv1L5fz+rwy1Bc4wGwaaQV8DxQrJADzBvwLTMc8DPeF9AhFl6QEY7vL4Ig1FA2d3XP8ogk8FRrUxB
lpc_rms=-32.80
offset=6959
sample=Soprano_sustain_PP_B3.opus
tune=-1
</region>

<region>
hivel=63
key=B3
loop_end=278045
loop_mode=loop_continuous
loop_start=80049
loop_xfade=23991
lovel=0
lpc=1nutQnoBMcNKzQRDaRnMwioBkkIz5+7BLkJXQlZbNsJf/3lBfucPwYAmlcDbaS5B7Xj9wAkW8UBvUWq/rwCgwEcNqkBlrv/A+cwKQa404sBtsaZASQo/wHbQl8BJybxA
lpc_rms=-23.04
offset=3215
sample=Soprano_sustain_PP_B2.opus
tune=+8
</region>

<region>
hivel=63
key=A5
loop_end=276277
loop_mode=loop_continuous
loop_start=79540
loop_xfade=23839
lovel=0
lpc=8F7uQtV9UMNUqAtDqmY7wpj2BkKu1/rBIPX0Qe5i88GMvPNBIhggwVpPAsGbMf6/FzNTQXWxlkFub4LBltt9wRkAVUHSAwFBMNkeQJTkr8CFwWs/ixlAPgi7u0Hh7N3B
lpc_rms=-28.67
offset=4486
sample=Soprano_sustain_PP_A4.opus
tune=-11
</region>

<region>
hivel=63
key=A4
loop_end=275259
loop_mode=loop_continuous
loop_start=79247
loop_xfade=23751
lovel=0
lpc=Q25XQqcC78LQ06tCjzsPwrejCkLgotnBfiO5QZcjx8HRJNRAQ5tsQOE8/T8119BAfAIUwRNyrz5ftBVALptcwOVTzD8q5oBAQSW1wFyVAECXmBhA8b+DwN9P0r6pWUFA
lpc_rms=-34.71
offset=2956
sample=Soprano_sustain_PP_A3.opus
tune=-1
</region>

<region>
hivel=63
key=A3
loop_end=276451
loop_mode=loop_continuous
loop_start=79590
loop_xfade=23854
lovel=0
lpc=P96BQjQE88Lg+7JCtfKxwgPupEKRuVDCFIlRQkmlJcLyOJ1BY7s+wWj+FEH2kttAmkVBwXWTNkE60yDB9if9QNTKAcEbPWtAZDiqwKMb40D+AeHA7soAQTKYX8Ei4h1B
lpc_rms=-26.12
offset=6096
sample=Soprano_sustain_PP_A2.opus
tune=+13
</region>

<region>
hivel=63
key=A#5
loop_end=276496
loop_mode=loop_continuous
loop_start=79603
loop_xfade=23858
lovel=0
lpc=LPGdQmGmCcOt2wBD+FO0wg+TiELTcULCCL8MQpY7q8GEZaZB1KmCwYMMkEAzlEVB7aFFwUboMUE3lpS/FXFWwH+Xyr6vbxBBaA+QvzK9lMBZmzxBxBd4wSCp60G/F+bB
lpc_rms=-28.27
offset=5431
sample=Soprano_sustain_PP_A#4.opus
tune=-9
</region>

<region>
hivel=63
key=A#4
loop_end=278296
loop_mode=loop_continuous
loop_start=80121
loop_xfade=24013
lovel=0
lpc=05+8QqeHasMyYUNDjAqXwgJRKUK0tB7C7+RzQj6Vh8IWaPlB7ifnv1oJjMEOVLRBxs0WwXZyx7+KMQBBcgqPwNSwZMG8yJlB6qRowGveHEDB49HAHgmFQf7EAMLOiZRB
lpc_rms=-28.24
offset=3327
sample=Soprano_sustain_PP_A#3.opus
tune=-4
</region>

<region>
hivel=63
key=A#3
loop_end=276434
loop_mode=loop_continuous
loop_start=79585
loop_xfade=23852
lovel=0
lpc=NpbxQe+6TMKA9wRCoz4NwrTX1kG6ID7BJIOKQcnqJ8G+lYhARmyVwJcWTj+uQRJAcwzwvnutAb9brRJATVtXwCTaYECNmovA+1R6QMUIGMBwNcy+ROU5PkypTsCK1nFA
lpc_rms=-32.82
offset=3831
sample=Soprano_sustain_PP_A#2.opus
tune=+14
</region>
</group>

<group>
amp_veltrack=0
ampeg_release=0.05
group_label=Sustain_64-127
lpc_hicc1=127
lpc_locc1=64

<region>
hivel=127
key=G5
loop_end=278296
loop_mode=loop_continuous
loop_start=80121
loop_xfade=24013
lovel=64
lpc=3/AGQg1Ch8JfCa5CiRKewgCEXEKEI/PBQO/RQRRi08E2iwhC3YHKwVAnX0HCJy3AEncdwKwmh0Crx5ZAvcurwKaCK0HCuHTAjmh9wAKhJUEkeTDBiLNWQSbd9cDImgZB
lpc_rms=-16.49
offset=3955
sample=Soprano_sustain_MF_G4.opus
tune=-2
</region>

<region>
hivel=127
key=G4
loop_end=275631
loop_mode=loop_continuous
loop_start=79354
loop_xfade=23783
lovel=64
lpc=GdawQWDXacJrIpZCib6Rwm63aEKuEi3CzAIdQql7IMI4uRlCL7f/wZDIp0E8mxDB7Zu4PaDm1EAQeZrAcWZ8vlTMO0CUzJDAf7KOQEFTpsArLLRAJ1uLwL8qOz66LdE/
lpc_rms=-18.99
offset=761
sample=Soprano_sustain_MF_G3.opus
tune=+4
</region>

<region>
hivel=127
key=G#5
loop_end=275427
loop_mode=loop_continuous
loop_start=79295
loop_xfade=23765
lovel=64
lpc=l/6MQbtpDsJJh0FCGvM7wjhxIUIRnejBeVfbQS9cxcGlHrNB4zRawZqTyUCrZ3tApk7EwCDhDEHX9vrAB2cqQQf4McHWhn9BT6x1wegEikGbnH/BxtZ0QZefCMFHSsNA
lpc_rms=-19.85
offset=956
sample=Soprano_sustain_MF_G#4.opus
tune=-5
</region>

<region>
hivel=127
key=G#4
loop_end=275424
loop_mode=loop_continuous
loop_start=79295
loop_xfade=23765
lovel=64
lpc=iR63QaCybcI8kJhC7vGVwkiDdkJ7fEzC9/1RQtxOWMJ6AktCc50iwjnx4kF20LvBle+yQR9shMFVsyRBs0nbwHgFsEDZtTXAZ9XFv+LeIUBMfS3AqYsmQH3Rjr8T8UU/
lpc_rms=-19.64
offset=909
sample=Soprano_sustain_MF_G#3.opus
tune=+1
</region>

<region>
hivel=127
key=G#3
loop_end=271710
loop_mode=loop_continuous
loop_start=78225
loop_xfade=23445
lovel=64
lpc=3+zYQcrkmMJTxMBCtTylwhwkY0LLVg/CJ4fvQbzlxcF0+DpBSdZKQLKORMEdjUdBQrFewQVokUE1XJfB4FqTQfikc8GP81JBMGxZwefaNEE9rfDA41h2QPfWFMAMO7A/
lpc_rms=-15.73
sample=Soprano_sustain_MF_G#2.opus
tune=-7
</region>

<region>
hivel=127
key=F5
loop_end=275211
loop_mode=loop_continuous
loop_start=79233
loop_xfade=23747
lovel=64
lpc=WlEDQoMYqcKT2NdChjW0wmwHSEKCHRjB/hzXvnmAOsHziqBBekBMwb/8JL81tyZBoSLfwMw+QUBt5m7AaoK0QBCrQsDOadY/mWH9vxw+/0AKKkjBldBwQY1/YcGRxAlB
lpc_rms=-17.68
offset=870
sample=Soprano_sustain_MF_F4.opus
tune=-12
</region>

<region>
hivel=127
key=F4
loop_end=274433
loop_mode=loop_continuous
loop_start=79009
loop_xfade=23680
lovel=64
lpc=+GHNQWNJksLUv8JCSo21wsGGhkL9yz7CwyA0QuqRPcJnCTRCc/gHwuCMk0GO/t/ANfxvv6Zwq0D7hsq/enkjwPGtEECA+Jk/WdqEwApK/T/thYi+qblpv+2E9D8qbg6/
lpc_rms=-21.26
offset=1173
sample=Soprano_sustain_MF_F3.opus
tune=-3
</region>

<region>
hivel=127
key=F#5
loop_end=274958
loop_mode=loop_continuous
loop_start=79160
loop_xfade=23725
lovel=64
lpc=aVenQR0ePsKmqGBCPAo0wmx18kH7yaLB4ErCQQ7N3sFor8BBTKpcwYXsm0Ci8IRA6dHxwFJiAEGWO6LAlKa0QECA8cAF6hxBYDzHwKqZkUAd3bfAodY/QY2wZsG4ehRB
lpc_rms=-22.25
offset=933
sample=Soprano_sustain_MF_F#4.opus
</region>

<region>
hivel=127
key=F#4
loop_end=274911
loop_mode=loop_continuous
loop_start=79147
loop_xfade=23721
lovel=64
lpc=jaC9Qeq1e8ITJZ1CEc6MwqbLSkKuegnCsoADQjf4DsKMNv5BEX2lwU61CEFXcAvAPSIGP4/+oT+3CoW/SOmOP1UDJcAx0kBAkrYVwMSzOr++uGdA1B6ZwMXoI0Czu+I+
lpc_rms=-22.74
offset=1728
sample=Soprano_sustain_MF_F#3.opus
tune=+3
</region>

<region>
hivel=127
key=E5
loop_end=274452
loop_mode=loop_continuous
loop_start=79015
loop_xfade=23681
lovel=64
lpc=P+kuQvUH3sKSshBD+SELwwoa2UIzl5zCWMmVQknwkMKkO2hCSyoZwrxYpUFfTb3A6QBhwHSTY0GhT5TBwQ1JQd2+gcAJobM/8tt6QGp3L8B0x4bAl1oDQQFyH8FMsAZB
lpc_rms=-14.79
offset=827
sample=Soprano_sustain_MF_E4.opus
tune=+18
</region>

<region>
hivel=127
key=E4
loop_end=272528
loop_mode=loop_continuous
loop_start=78461
loop_xfade=23515
lovel=64
lpc=YWIKQvydwsJxM/VCSnvVwvzjoEJSRoHCCCWHQocDjsLQnIJCGMRNwtXO7EGIyinBdtd0vysT8kDLSI7Al8f7P6UAu8Ce4glBrIIfwWUrA0GLQevAf3QGQSwt58BuDVpA
lpc_rms=-19.30
offset=1027
sample=Soprano_sustain_MF_E3.opus
tune=+11
</region>

<region>
hivel=127
key=D6
loop_end=271366
loop_mode=loop_continuous
loop_start=78126
loop_xfade=23415
lovel=64
lpc=IqoYQvBRY8Lpq0xCd8sKwliUv0F/gILBt5WNQc9RUsFKj1NBSbzFwKZfqkCEUZk+cN+rPwt3IkBABJ8/JFEwP0ZwSkBAG2G/Y1JbQLu4EEDhwP3BFC4fQs5itsFmqxRB
lpc_rms=-24.45
offset=1433
sample=Soprano_sustain_MF_D5.opus
tune=-22
</region>

<region>
hivel=127
key=D5
loop_end=274841
loop_mode=loop_continuous
loop_start=79127
loop_xfade=23715
lovel=64
lpc=u18hQnT82cJjRQdDCVLawmsGiUIKqjfC1T9FQsguMsL4ZZNBhxu8QAj+R8GSl0VB6WxkwcIMPkHYwJhA5XviwZE0D0LOXKTB21QPQTeMDsEOkzNBRnXCwOCXecCUeqxA
lpc_rms=-16.78
offset=975
sample=Soprano_sustain_MF_D4.opus
tune=-3
</region>

<region>
hivel=127
key=D4
loop_end=277481
loop_mode=loop_continuous
loop_start=79887
loop_xfade=23943
lovel=64
lpc=tXEpQslF9sKOoCFDs9IOwycOyEKk64bCpt1kQuoEUMKouSRCy+e3wa9suECwpgVBvBCMwZSdd0EDWAnByxcvQCtH9j+c7W09dvmEwHdcoUBt6ebA5HsYQXkwFcGugoxA
lpc_rms=-19.49
offset=3384
sample=Soprano_sustain_MF_D3.opus
tune=+15
</region>

<region>
hikey=F6
hivel=127
lokey=D#6
loop_end=271660
loop_mode=loop_continuous
loop_start=78211
loop_xfade=23440
lovel=64
lpc=6rR1QrWczMInEb5CdymDwhkdJ0LkgcrBrzrrQXhYrcHC3blBdWI7wTcu8UAbG6ZAxt9/wMjlB0F0Rgy/gAW9QOXadcB03GNB/RvCwafHcMH9LWhCEPxNwh2ABEI8SxPB
lpc_rms=-19.46
offset=1525
pitch_keycenter=D#6
sample=Soprano_sustain_MF_D#5.opus
tune=-40
</region>

<region>
hivel=127
key=D#5
loop_end=274837
loop_mode=loop_continuous
loop_start=79126
loop_xfade=23714
lovel=64
lpc=sTjzQZt0psIe595C8SXZwqn9qEIWfVnCiMhAQui9T8ILATtCfSQNwvsfhEHPg5I/qUn/wFfuO0H1HPvAufpDvoMycz913htAUnbDwIBoVUEIaGjBOFA3QR3oI8FJwsBA
lpc_rms=-17.38
offset=901
sample=Soprano_sustain_MF_D#4.opus
tune=-1
</region>

<region>
hivel=127
key=D#4
loop_end=273488
loop_mode=loop_continuous
loop_start=78737
loop_xfade=23598
lovel=64
lpc=1J70QSaHq8KT++NCpI/jwvtFxkKBUKfCoJygQuXOnsJ5i5JC3WBvwj89KEID98rBW7kgQWJ5IcBa5/NATxE5wbq9IEEcMr3AtXWcPxaL/r/RVVdAiigwwBWPlD0AALo/
lpc_rms=-18.05
offset=1250
sample=Soprano_sustain_MF_D#3.opus
tune=+6
</region>

<region>
hivel=127
key=C6
loop_end=274200
loop_mode=loop_continuous
loop_start=78942
loop_xfade=23659
lovel=64
lpc=FYF5QfVEfsHWBk5B5c4EwRqf3kDSKpPAarWnQG9nb8B4bYNATqe9vyqxtT9OLwQ/9Rg7PzVgJb6nq4I/G36jP/5+27+CtI9A4OeJwFOhv0Dr1q7AjqAMQXehZ8HG7IpA
lpc_rms=-33.70
offset=1568
sample=Soprano_sustain_MF_C5.opus
tune=-18
</region>

<region>
hivel=127
key=C5
loop_end=275852
loop_mode=loop_continuous
loop_start=79418
loop_xfade=23802
lovel=64
lpc=V8H+QZFtq8IFtthCx1HHwpvEmELjpDvCcJHmQYOLosHWslBBD8kHwW+qGkBiVe1AtHEuwTCXRkHv8DPB3n6XQCWPBb+6/Wy/euYvP3sSpj+OJuq/7BiPQEHu/cCvtqNA
lpc_rms=-17.31
offset=1241
sample=Soprano_sustain_MF_C4.opus
tune=-8
</region>

<region>
hikey=C4
hivel=127
lokey=C4
loop_end=277338
loop_mode=loop_continuous
loop_start=79846
loop_xfade=23930
lovel=64
lpc=OT4UQkIc8MJzPCpDcp4Qww4tqEL/6B3C4RL8QUjEL8I/eUJCQ/8JwmBxSkG9R+m/DoNmQDk8m8DqeZVAptLjwOXA50AfVLI/P7BMwSFphkFfl2zBcuEnQcYAsMD3UcM/
lpc_rms=-19.63
offset=2102
sample=Soprano_sustain_MF_C3.opus
tune=+10
</region>

<region>
hivel=127
key=C#6
loop_end=271499
loop_mode=loop_continuous
loop_start=78165
loop_xfade=23426
lovel=64
lpc=7QADQh+aKcJe4NtBiIFfwcP6QkEW7gPB9tg7Qd954cBYYwFBr3VgwPvW2ECalITAzIwAQca5p8BWMQNBhYmZwH9qB0GcXtPAqLQ9QXS2HcFSbHFBGV4Fwp5fzEFLzyDA
lpc_rms=-27.04
offset=1380
sample=Soprano_sustain_MF_C#5.opus
tune=-21
</region>

<region>
hivel=127
key=C#5
loop_end=276582
loop_mode=loop_continuous
loop_start=79628
loop_xfade=23865
lovel=64
lpc=SkcXQlhK1MLp4ARDLwrOwi+CTULRyYLBJPyYQdjB/sEomPdBp26awQ8bbEDa8Q9B73cewVOmPUCQ8MNAT8s4wXDaBEEsgs3Atq0tQdgU7cCx+TLAjNdQQdL0isEhURFB
lpc_rms=-16.78
offset=829
sample=Soprano_sustain_MF_C#4.opus
tune=+3
</region>

<region>
hivel=127
key=C#4
loop_end=276708
loop_mode=loop_continuous
loop_start=79664
loop_xfade=23876
lovel=64
lpc=po5aQmucG8NLPT5DflgVwz67tkLKcVPCg5dLQgRoZsKjojpCtt+2wTgwM8DvyJ9B5fSiwbmcRUFTv4HA594Zwdb4jEGB2afAv3iqwH4UhkDub3/AcUkfPyYvsL0z3ec/
lpc_rms=-19.70
offset=3593
sample=Soprano_sustain_MF_C#3.opus
tune=+24
</region>

<region>
hivel=127
key=B5
loop_end=274706
loop_mode=loop_continuous
loop_start=79088
loop_xfade=23703
lovel=64
lpc=I+SmQRRamMEO5q5BSzlqwdORekEbcgvBeB8kQY76K8AyB0lAlr2FQJrGur8oPdFAKx8zwOOV8ECu5lLAD+7GQHWWjT0kgN8/WgOgQPjoZMAtqCtBmk8YwXvVhEEH4VnB
lpc_rms=-26.71
offset=2614
sample=Soprano_sustain_MF_B4.opus
tune=-8
</region>

<region>
hivel=127
key=B4
loop_end=273692
loop_mode=loop_continuous
loop_start=78796
loop_xfade=23616
lovel=64
lpc=gAM9QZQ+58EPQAhCNN/bwUNYj0HAWkHBc1U9Qb0rZsHJOoVB/6iDwTSuUEGL3fXAjiM6QJXKyL8al3ZAUzzDwJSvuUChyWHANgIrQHGuJ8AoHwJALJiHv73NmD4Muuc+
lpc_rms=-25.20
offset=1953
sample=Soprano_sustain_MF_B3.opus
tune=+9
</region>

<region>
hivel=127
key=B3
loop_end=277919
loop_mode=loop_continuous
loop_start=80013
loop_xfade=23980
lovel=64
lpc=LAQPQuXd3MLFaRpDBI0Qw0M82EJceprCMk+aQt6ys8J8eK9CmUuGwvjEBkIvaovAcO6bwAaPc0D41E3ABAvHQI3HScHmOFFBAU7YwIBCjr8qs8dAFi3zwOWM0UAmrRzA
lpc_rms=-20.27
offset=922
sample=Soprano_sustain_MF_B2.opus
tune=+13
</region>

<region>
hivel=127
key=A5
loop_end=274559
loop_mode=loop_continuous
loop_start=79046
loop_xfade=23690
lovel=64
lpc=ycGdQZH2vcFAHtZBWPeHwbBdrEEyJovBaWWdQUrjJMH+oEhBJ8y/wK4Q/UCtCgg9Ygl6QHb27D9E6Kc/5fGbQFMalT8gIVVAgwywPgaOm0AQIQFAyNJIQC8VH8DIzhpB
lpc_rms=-19.67
offset=390
sample=Soprano_sustain_MF_A4.opus
tune=-7
</region>

<region>
hivel=127
key=A4
loop_end=276094
loop_mode=loop_continuous
loop_start=79488
loop_xfade=23823
lovel=64
lpc=gSJ/QWiWJMIumUFCxhEgwsA11UFgQ5PBGNakQeioq8HrkntB527zwIZ20z9/wl6/LPM6QC3NA8DA/t8+SruTP5b8MsCokAlAAMKkvwvlpD6HesI+3VVZP4Tv3b9Jbnk/
lpc_rms=-21.57
offset=915
sample=Soprano_sustain_MF_A3.opus
tune=+3
</region>

<region>
hivel=127
key=A3
loop_end=276291
loop_mode=loop_continuous
loop_start=79544
loop_xfade=23840
lovel=64
lpc=WrYuQq/3/cIf1h5D7uEDw2nKvEKJyHfCxq5eQuI7icIhvIlC5QtOwi/o/UHiw5DB/oA0QWbJvMDSjcNA3toowZCkHkFFoy3BqlJeQQ90acGD9W9B5a44wcFxtkB+Dr6/
lpc_rms=-17.60
offset=4081
sample=Soprano_sustain_MF_A2.opus
tune=-8
</region>

<region>
hivel=127
key=A#5
loop_end=273819
loop_mode=loop_continuous
loop_start=78832
loop_xfade=23627
lovel=64
lpc=bWJCQqT4oMLhsqFC4MwwwhYAjUFRIYfANOKgQT7/1MEcIQJCTtKnwUlcLUGePwFBcJ4JwUfDIkG15IA/FOjgP4GZn8BkHppBlhuuwYK71EGKq7vAOcJ4wZ3HCULxZp/B
lpc_rms=-18.64
offset=2964
sample=Soprano_sustain_MF_A#4.opus
tune=-4
</region>

<region>
hivel=127
key=A#4
loop_end=276604
loop_mode=loop_continuous
loop_start=79634
loop_xfade=23867
lovel=64
lpc=M11mQX7GIMKcv1RCQEg+widM+0EY/pTBZsSNQYnRmsHOroZBOPhCwehj1kDgiznAJIwKQD8dnb93TJc/uJD8v9TpBkA09jrAxH58QLV5l8AhZpFARm4iwB1vST/COU09
lpc_rms=-24.51
offset=950
sample=Soprano_sustain_MF_A#3.opus
tune=+5
</region>

<region>
hivel=127
key=A#3
loop_end=273402
loop_mode=loop_continuous
loop_start=78712
loop_xfade=23591
lovel=64
lpc=a9gBQrV82sI1kSxDcps0wx6ZDkPTqLrCsQGGQupoXsI1BRJCSm+LwXj6JUG6gQPBRJVUQIB440CZPTzBMZkTQNgYmUB+vifAiNteQAM8KMFd75lBjUWxwQECXEGoXFPA
lpc_rms=-19.42
offset=3513
sample=Soprano_sustain_MF_A#2.opus
</region>
</group>